# Blender v2.78 (sub 0) OBJ File: 'submarine.blend'
# www.blender.org
mtllib shrap_01.mtl
o Cube
v -0.934258 -0.131013 0.439731
v -0.934258 -0.205514 0.593871
v -0.669444 -0.406107 -0.460597
v -0.669444 -0.480608 -0.306457
v 1.023054 0.041445 0.471475
v 1.023054 -0.129756 0.471475
v 1.317812 0.041445 -0.378394
v 1.317812 -0.129756 -0.378394
v 0.640468 0.550769 -0.613319
v -0.207388 -0.012504 -0.466819
v -0.207388 -0.457361 -0.267120
v 0.640468 0.328967 -0.613319
v -0.220420 -0.070949 0.343221
v 0.207388 0.066746 0.518261
v 0.207388 -0.155056 0.518261
v -0.220420 -0.167471 0.542920
v -1.451316 0.175632 -0.580763
v -1.451316 0.116246 -0.457896
v 0.824454 0.402790 0.000000
v 0.824454 0.266324 0.000000
v 0.346885 0.046675 0.099184
v -0.328949 -0.086443 -0.266460
v -0.328949 -0.009505 -0.425642
v 0.346885 0.223475 0.099184
vt 0.9391 0.7943
vt 0.9511 0.7285
vt 0.9609 0.7235
vt 0.7945 0.9021
vt 0.8481 0.8941
vt 0.8553 0.9096
vt 0.7899 0.7794
vt 0.7801 0.8367
vt 0.7663 0.8375
vt 0.8931 0.7334
vt 0.8600 0.7457
vt 0.8550 0.7341
vt 0.7217 0.8064
vt 0.8963 0.7821
vt 0.8894 0.7392
vt 0.7988 0.7816
vt 0.8395 0.8042
vt 0.6334 0.7235
vt 0.6365 0.8230
vt 0.5430 0.7664
vt 0.6793 0.7629
vt 0.8222 0.7477
vt 0.8335 0.7609
vt 0.9063 0.8064
vt 0.9275 0.7886
vt 0.9185 0.8391
vt 0.6464 0.8312
vt 0.7216 0.8851
vt 0.5865 0.8402
vt 0.8006 0.8936
vt 0.7197 0.7639
vn -0.5164 -0.7710 -0.3727
vn 0.3277 0.0000 -0.9448
vn 0.9216 0.0000 -0.3882
vn -0.0169 0.9002 0.4351
vn -0.1498 0.7533 0.6404
vn -0.1351 -0.9641 -0.2285
vn 0.1869 -0.7120 -0.6769
vn 0.2591 -0.9570 -0.1306
vn 0.1282 0.9658 0.2253
vn -0.4120 0.9018 0.1302
vn 0.0573 0.0000 0.9984
vn -0.3787 0.0000 0.9255
vn 0.0821 -0.8973 -0.4337
vn 0.0073 -0.4095 -0.9123
vn -0.5255 0.8343 0.1667
vn -0.2952 0.3324 -0.8957
vn 0.2985 0.0962 0.9495
vn -0.5799 -0.8095 0.0913
vn -0.0833 -0.0291 0.9961
vn 0.5978 0.8015 0.0140
vn 0.6086 0.0000 0.7935
vn -0.3090 0.8563 0.4139
vn 0.0497 0.9299 0.3643
vn 0.0454 -0.9934 -0.1055
vn 0.0031 -0.9014 -0.4329
vn 0.0012 -0.9012 -0.4334
vn -0.0715 0.9934 0.0895
vn -0.3769 0.9017 0.2118
vn -0.0010 0.9003 0.4352
vn 0.3190 -0.3881 -0.8646
vn -0.1703 0.0000 -0.9854
vn -0.0828 0.9460 -0.3133
vn 0.1326 -0.0265 -0.9908
vn 0.3097 -0.9208 -0.2372
vn 0.3737 -0.9047 -0.2045
vn -0.1611 0.0391 0.9862
vn -0.2790 0.9111 0.3035
usemtl None
s off
f 3/1/1 18/2/1 17/3/1
f 7/4/2 12/5/2 9/6/2
f 5/7/3 20/8/3 19/9/3
f 1/10/4 16/11/4 13/12/4
f 24/13/5 5/7/5 19/9/5
f 22/14/6 2/15/6 18/2/6
f 6/16/7 21/17/7 20/8/7
f 21/17/8 16/11/8 22/14/8
f 1/18/9 23/19/9 17/20/9
f 13/21/10 24/13/10 23/19/10
f 14/22/11 6/16/11 5/7/11
f 13/12/12 15/23/12 14/22/12
f 3/1/13 11/24/13 4/25/13
f 10/26/14 12/5/14 11/24/14
f 10/27/15 24/13/15 9/28/15
f 3/29/16 23/19/16 10/27/16
f 12/5/17 22/14/17 11/24/17
f 20/8/18 12/5/18 8/30/18
f 22/14/19 4/25/19 11/24/19
f 9/28/20 19/9/20 7/4/20
f 7/4/21 20/8/21 8/30/21
f 1/10/22 18/2/22 2/15/22
f 3/1/1 4/25/1 18/2/1
f 7/4/2 8/30/2 12/5/2
f 5/7/3 6/16/3 20/8/3
f 1/10/4 2/15/4 16/11/4
f 24/13/23 14/31/23 5/7/23
f 22/14/24 16/11/24 2/15/24
f 6/16/25 15/23/25 21/17/25
f 21/17/26 15/23/26 16/11/26
f 1/18/27 13/21/27 23/19/27
f 13/21/28 14/31/28 24/13/28
f 14/22/11 15/23/11 6/16/11
f 13/12/29 16/11/29 15/23/29
f 3/1/30 10/26/30 11/24/30
f 10/26/31 9/6/31 12/5/31
f 10/27/32 23/19/32 24/13/32
f 3/29/33 17/20/33 23/19/33
f 12/5/34 21/17/34 22/14/34
f 20/8/35 21/17/35 12/5/35
f 22/14/36 18/2/36 4/25/36
f 9/28/37 24/13/37 19/9/37
f 7/4/21 19/9/21 20/8/21
f 1/10/22 17/3/22 18/2/22
