# Blender v2.78 (sub 0) OBJ File: 'submarine.blend'
# www.blender.org
mtllib shrap_02.mtl
o Cube.001
v -1.023054 -0.085600 0.471475
v -1.023054 0.085600 0.471475
v -0.669444 -0.085600 -0.471475
v -0.669444 0.085600 -0.471475
v 1.023054 -0.085600 0.471475
v 1.023054 0.085600 0.471475
v 1.023054 -0.085600 -0.471475
v 1.023054 0.085600 -0.471475
v 0.640468 -0.594924 -0.613319
v -0.207388 -0.110901 -0.862177
v -0.207388 0.110901 -0.862177
v 0.640468 -0.373122 -0.613319
v -0.640468 0.492266 0.613319
v 0.207388 -0.110901 0.862177
v 0.207388 0.110901 0.862177
v -0.640468 0.714068 0.613319
v -0.665585 -0.065211 0.000000
v -0.665585 0.071255 0.000000
v 0.824454 -0.065211 0.000000
v 0.824454 0.071255 0.000000
v 0.346885 0.290904 0.099184
v -0.328949 0.331817 -0.099184
v -0.328949 0.155017 -0.099184
v 0.346885 0.114104 0.099184
vt 0.9328 0.8308
vt 0.9236 0.8729
vt 0.9132 0.8634
vt 0.8114 0.8831
vt 0.7804 0.8726
vt 0.8165 0.8716
vt 0.7766 0.8165
vt 0.7741 0.7585
vt 0.7865 0.7692
vt 0.9363 0.7326
vt 0.9598 0.7966
vt 0.9490 0.8020
vt 0.8315 0.8073
vt 0.8376 0.7481
vt 0.5776 0.7960
vt 0.5995 0.7108
vt 0.6234 0.7982
vt 0.7002 0.7926
vt 0.7595 0.8156
vt 0.7020 0.7121
vt 0.8932 0.8209
vt 0.8385 0.7316
vt 0.8754 0.8870
vt 0.6240 0.8804
vt 0.7197 0.8956
vt 0.7673 0.8786
vt 0.5833 0.8406
vt 0.9423 0.8355
vt 0.9467 0.7108
vt 0.5382 0.7526
vt 0.8822 0.9027
vn -1.0000 0.0000 0.0082
vn 0.3476 0.0000 -0.9376
vn 0.9216 0.0000 -0.3882
vn -0.3476 0.0000 0.9376
vn -0.1144 -0.9470 -0.3002
vn -0.6025 0.5631 -0.5656
vn 0.3782 0.9067 -0.1869
vn -0.0080 0.9736 0.2282
vn 0.6703 -0.5626 0.4839
vn -0.5979 -0.7934 0.1141
vn 0.4320 0.0000 0.9019
vn -0.2816 0.0000 0.9595
vn -0.6457 0.0000 -0.7636
vn 0.2816 0.0000 -0.9595
vn -0.1464 -0.9411 0.3047
vn 0.5537 -0.8321 0.0315
vn 0.5389 0.7154 -0.4447
vn -0.6957 0.6646 -0.2728
vn -0.3111 0.8985 -0.3097
vn -0.1347 -0.7296 0.6705
vn 0.9216 0.0000 0.3882
vn -0.7969 0.0000 -0.6042
vn -0.3317 -0.9382 0.0991
vn -0.6699 0.5261 -0.5239
vn 0.1508 0.9556 0.2530
vn 0.6026 0.7826 -0.1564
vn 0.5661 -0.6214 0.5416
vn 0.0237 -0.9601 -0.2788
vn -0.5374 -0.6980 0.4732
vn 0.2499 -0.9013 0.3539
vn 0.1331 0.9575 -0.2560
vn 0.2206 0.7572 -0.6148
vn -0.6064 0.7946 0.0291
vn 0.7100 -0.6241 0.3261
usemtl None
s off
f 17/1/1 4/2/1 3/3/1
f 12/4/2 7/5/2 9/6/2
f 19/7/3 6/8/3 5/9/3
f 13/10/4 2/11/4 1/12/4
f 24/13/5 5/9/5 14/14/5
f 18/15/6 16/16/6 22/17/6
f 21/18/7 6/8/7 20/19/7
f 22/17/8 15/20/8 21/18/8
f 17/1/9 13/10/9 1/12/9
f 23/21/10 14/14/10 13/10/10
f 6/8/11 14/14/11 5/9/11
f 15/22/12 13/10/12 14/14/12
f 4/2/13 10/23/13 3/3/13
f 10/23/14 12/4/14 9/6/14
f 10/23/15 24/13/15 23/21/15
f 3/3/16 23/21/16 17/1/16
f 11/24/17 21/18/17 12/25/17
f 12/25/18 20/19/18 8/26/18
f 4/27/19 22/17/19 11/24/19
f 9/6/20 19/7/20 24/13/20
f 8/26/21 19/7/21 7/5/21
f 2/11/22 17/1/22 1/12/22
f 17/1/1 18/28/1 4/2/1
f 12/4/2 8/26/2 7/5/2
f 19/7/3 20/19/3 6/8/3
f 13/10/4 16/29/4 2/11/4
f 24/13/23 19/7/23 5/9/23
f 18/15/24 2/30/24 16/16/24
f 21/18/25 15/20/25 6/8/25
f 22/17/26 16/16/26 15/20/26
f 17/1/27 23/21/27 13/10/27
f 23/21/28 24/13/28 14/14/28
f 6/8/11 15/22/11 14/14/11
f 15/22/12 16/29/12 13/10/12
f 4/2/13 11/31/13 10/23/13
f 10/23/14 11/31/14 12/4/14
f 10/23/29 9/6/29 24/13/29
f 3/3/30 10/23/30 23/21/30
f 11/24/31 22/17/31 21/18/31
f 12/25/32 21/18/32 20/19/32
f 4/27/33 18/15/33 22/17/33
f 9/6/34 7/5/34 19/7/34
f 8/26/21 20/19/21 19/7/21
f 2/11/22 18/28/22 17/1/22
