# Blender v2.78 (sub 0) OBJ File: 'submarine.blend'
# www.blender.org
mtllib shrap_03.mtl
o Cube.002
v -1.023054 0.605297 0.471475
v -1.023054 0.776498 0.471475
v -0.669444 -0.085600 -0.471475
v -0.669444 0.085600 -0.471475
v 1.023054 -0.085600 0.471475
v 1.023054 0.085600 0.471475
v 1.023054 -0.085600 -0.471475
v 1.023054 0.085600 -0.471475
v 0.640468 -0.594924 -0.613319
v -0.207388 -0.110901 -0.433426
v -0.207388 0.110901 -0.433426
v 0.640468 -0.373122 -0.613319
v -0.640468 0.492266 1.074251
v 0.207388 -0.110901 0.518261
v 0.207388 0.110901 0.518261
v -0.640468 0.714068 1.074251
v -1.451316 -0.065211 0.000000
v -1.451316 0.071255 0.000000
v 0.824454 -0.065211 0.000000
v 0.824454 0.071255 0.000000
v 0.346885 0.290904 0.099184
v -0.328949 0.331817 -0.099184
v -0.328949 0.155017 -0.099184
v 0.346885 0.114104 0.099184
vt 0.9540 0.8400
vt 0.9303 0.8757
vt 0.9237 0.8643
vt 0.8151 0.8787
vt 0.7878 0.8706
vt 0.8183 0.8686
vt 0.7851 0.8210
vt 0.7839 0.7691
vt 0.7945 0.7802
vt 0.9322 0.7247
vt 0.9664 0.7759
vt 0.9244 0.7406
vt 0.8362 0.8136
vt 0.8481 0.7707
vt 0.6527 0.8035
vt 0.5923 0.7352
vt 0.6349 0.6898
vt 0.7186 0.7991
vt 0.7700 0.8200
vt 0.7137 0.7566
vt 0.8953 0.8312
vt 0.8481 0.7530
vt 0.8852 0.8731
vt 0.6601 0.8414
vt 0.7323 0.8905
vt 0.7762 0.8761
vt 0.6190 0.8426
vt 0.9613 0.8398
vt 0.9776 0.7670
vt 0.5478 0.8049
vt 0.8922 0.8905
vn -0.5164 0.0000 -0.8564
vn 0.3476 0.0000 -0.9376
vn 0.9216 0.0000 -0.3882
vn -0.8443 0.0000 0.5359
vn 0.0002 -0.8811 -0.4730
vn 0.4237 0.8884 -0.1769
vn 0.3782 0.9067 -0.1869
vn -0.0552 0.9240 0.3785
vn 0.1918 -0.6435 0.7410
vn -0.5323 -0.8406 0.1003
vn 0.0573 0.0000 0.9984
vn 0.5484 0.0000 0.8362
vn 0.0821 0.0000 -0.9966
vn -0.2076 0.0000 -0.9782
vn -0.2128 -0.8009 0.5598
vn 0.2104 -0.8975 0.3877
vn 0.3091 0.7559 -0.5771
vn -0.6957 0.6646 -0.2728
vn -0.0003 0.8342 -0.5515
vn -0.1347 -0.7296 0.6705
vn 0.9216 0.0000 0.3882
vn -0.7402 0.0000 0.6724
vn -0.3317 -0.9382 0.0991
vn -0.2121 0.6289 -0.7480
vn 0.0517 0.9112 0.4086
vn 0.5111 0.8480 -0.1405
vn -0.4627 -0.8770 0.1292
vn 0.0786 -0.8890 -0.4511
vn -0.2899 -0.7355 0.6124
vn -0.0929 -0.7954 0.5990
vn 0.1953 0.8494 -0.4903
vn 0.2206 0.7572 -0.6148
vn -0.2410 0.8963 -0.3724
vn 0.7100 -0.6241 0.3261
usemtl None
s off
f 17/1/1 4/2/1 3/3/1
f 12/4/2 7/5/2 9/6/2
f 19/7/3 6/8/3 5/9/3
f 16/10/4 1/11/4 13/12/4
f 24/13/5 5/9/5 14/14/5
f 22/15/6 2/16/6 16/17/6
f 21/18/7 6/8/7 20/19/7
f 22/15/8 15/20/8 21/18/8
f 23/21/9 1/11/9 17/1/9
f 23/21/10 14/14/10 13/12/10
f 6/8/11 14/14/11 5/9/11
f 15/22/12 13/12/12 14/14/12
f 4/2/13 10/23/13 3/3/13
f 10/23/14 12/4/14 9/6/14
f 10/23/15 24/13/15 23/21/15
f 3/3/16 23/21/16 17/1/16
f 11/24/17 21/18/17 12/25/17
f 12/25/18 20/19/18 8/26/18
f 4/27/19 22/15/19 11/24/19
f 9/6/20 19/7/20 24/13/20
f 8/26/21 19/7/21 7/5/21
f 1/11/22 18/28/22 17/1/22
f 17/1/1 18/28/1 4/2/1
f 12/4/2 8/26/2 7/5/2
f 19/7/3 20/19/3 6/8/3
f 16/10/4 2/29/4 1/11/4
f 24/13/23 19/7/23 5/9/23
f 22/15/24 18/30/24 2/16/24
f 21/18/25 15/20/25 6/8/25
f 22/15/26 16/17/26 15/20/26
f 23/21/27 13/12/27 1/11/27
f 23/21/28 24/13/28 14/14/28
f 6/8/11 15/22/11 14/14/11
f 15/22/12 16/10/12 13/12/12
f 4/2/13 11/31/13 10/23/13
f 10/23/14 11/31/14 12/4/14
f 10/23/29 9/6/29 24/13/29
f 3/3/30 10/23/30 23/21/30
f 11/24/31 22/15/31 21/18/31
f 12/25/32 21/18/32 20/19/32
f 4/27/33 18/30/33 22/15/33
f 9/6/34 7/5/34 19/7/34
f 8/26/21 20/19/21 19/7/21
f 1/11/22 2/29/22 18/28/22
