# Blender v2.78 (sub 0) OBJ File: 'submarine.blend'
# www.blender.org
mtllib torpedo.mtl
o Cylinder_Cylinder.001
v -0.000000 0.369703 -2.414233
v -0.000000 0.369703 1.987287
v 0.261419 0.261419 -2.414233
v 0.261419 0.261419 1.987287
v 0.369703 0.000000 -2.414233
v 0.369703 -0.000000 1.987287
v 0.261419 -0.261419 -2.414233
v 0.261419 -0.261419 1.987287
v -0.000000 -0.369703 -2.414233
v -0.000000 -0.369703 1.987287
v -0.261419 -0.261419 -2.414233
v -0.261419 -0.261419 1.987287
v -0.369703 0.000000 -2.414233
v -0.369703 -0.000000 1.987287
v -0.261419 0.261419 -2.414233
v -0.261419 0.261419 1.987287
v 0.218009 0.218009 2.906368
v -0.000000 0.308311 2.906368
v 0.308311 -0.000000 2.906368
v 0.218009 -0.218009 2.906368
v -0.000000 -0.308311 2.906368
v -0.218009 -0.218009 2.906368
v -0.308311 -0.000000 2.906368
v -0.218009 0.218009 2.906368
v 0.119521 0.119521 3.513461
v 0.000000 0.169028 3.513461
v 0.169028 -0.000000 3.513461
v 0.119521 -0.119521 3.513461
v -0.000000 -0.169028 3.513461
v -0.119521 -0.119521 3.513461
v -0.169028 -0.000000 3.513461
v -0.119521 0.119521 3.513461
v 0.040330 0.040330 3.670956
v 0.000000 0.057036 3.670956
v 0.057036 -0.000000 3.670956
v 0.040330 -0.040330 3.670956
v -0.000000 -0.057036 3.670956
v -0.040330 -0.040330 3.670956
v -0.057036 -0.000000 3.670956
v -0.040330 0.040330 3.670956
v -0.000000 0.390107 0.000000
v 0.275847 0.275847 0.000000
v 0.390107 -0.000000 -0.000000
v 0.275847 -0.275847 -0.000000
v -0.000000 -0.390107 -0.000000
v -0.275847 -0.275847 -0.000000
v -0.390107 0.000000 0.000000
v -0.275847 0.275847 0.000000
v 0.254613 0.254613 -0.044764
v 0.360078 -0.000000 -0.044764
v 0.254613 -0.254613 -0.044764
v -0.000000 -0.360078 -0.044764
v -0.254613 -0.254613 -0.044764
v -0.360078 0.000000 -0.044764
v -0.254613 0.254613 -0.044764
v -0.000000 0.360078 -0.044764
v -0.000000 0.079391 -3.950409
v 0.056138 0.056138 -3.950409
v 0.079391 0.000000 -3.950409
v 0.056138 -0.056138 -3.950409
v -0.000000 -0.079391 -3.950409
v -0.056138 -0.056138 -3.950409
v -0.079391 0.000000 -3.950409
v -0.056138 0.056138 -3.950409
v -0.062280 0.048376 -1.914821
v -0.062280 0.637628 -2.482273
v -0.062280 0.048376 -3.914821
v -0.062280 0.637628 -4.482273
v 0.062280 0.048376 -1.914821
v 0.062280 0.637628 -2.482273
v 0.062280 0.048376 -3.914821
v 0.062280 0.637628 -4.482273
v -0.048375 -0.062279 -1.914821
v -0.637628 -0.062279 -2.482272
v -0.048375 -0.062279 -3.914821
v -0.637628 -0.062279 -4.482272
v -0.048375 0.062280 -1.914821
v -0.637628 0.062280 -2.482272
v -0.048375 0.062280 -3.914821
v -0.637628 0.062280 -4.482272
v 0.062280 -0.048375 -1.914821
v 0.062280 -0.637628 -2.482272
v 0.062280 -0.048375 -3.914821
v 0.062280 -0.637627 -4.482272
v -0.062280 -0.048375 -1.914821
v -0.062280 -0.637628 -2.482272
v -0.062280 -0.048375 -3.914821
v -0.062280 -0.637627 -4.482272
v 0.048375 0.062280 -1.914821
v 0.637628 0.062280 -2.482272
v 0.048375 0.062280 -3.914821
v 0.637628 0.062280 -4.482271
v 0.048375 -0.062279 -1.914821
v 0.637628 -0.062279 -2.482272
v 0.048375 -0.062279 -3.914821
v 0.637628 -0.062279 -4.482271
vt 0.8274 0.1645
vt 0.8066 0.0562
vt 0.8548 0.1596
vt 0.7027 0.4072
vt 0.6846 0.1366
vt 0.7154 0.1500
vt 0.9232 0.4074
vt 0.8829 0.1512
vt 0.9105 0.1411
vt 0.8601 0.4099
vt 0.8287 0.4104
vt 0.8001 0.1660
vt 0.7973 0.4104
vt 0.7725 0.1643
vt 0.7659 0.4098
vt 0.7444 0.1591
vt 0.7344 0.4087
vt 0.7959 0.0596
vt 0.7928 0.0555
vt 0.8028 0.0329
vt 0.8033 0.0604
vt 0.7920 0.0490
vt 0.8084 0.0487
vt 0.7995 0.0615
vt 0.6714 0.4056
vt 0.8916 0.4088
vt 0.1032 0.7068
vt 0.0875 0.5896
vt 0.1057 0.5907
vt 0.0859 0.7087
vt 0.0684 0.5862
vt 0.2118 0.5898
vt 0.1892 0.7119
vt 0.1936 0.5923
vt 0.1761 0.5926
vt 0.1536 0.7066
vt 0.1586 0.5923
vt 0.1410 0.5918
vt 0.1710 0.7087
vt 0.1462 0.7559
vt 0.1368 0.7056
vt 0.1234 0.5913
vt 0.1201 0.7057
vt 0.0864 0.7693
vt 0.1201 0.7871
vt 0.1175 0.7952
vt 0.1114 0.7570
vt 0.0992 0.7620
vt 0.2085 0.7161
vt 0.1702 0.7674
vt 0.1346 0.7540
vt 0.1579 0.7602
vt 0.1231 0.7544
vt 0.0684 0.7113
vt 0.1285 0.7792
vt 0.1301 0.7862
vt 0.1240 0.7819
vt 0.1331 0.7786
vt 0.1377 0.7801
vt 0.1833 0.7781
vt 0.1441 0.7900
vt 0.1416 0.7838
vt 0.1327 0.7847
vt 0.1342 0.7892
vt 0.1318 0.7907
vt 0.1346 0.7870
vt 0.1312 0.7850
vt 0.1339 0.7854
vt 0.1438 0.7997
vt 0.1299 0.7882
vt 0.1058 0.5873
vt 0.1235 0.5880
vt 0.1411 0.5885
vt 0.1586 0.5890
vt 0.1761 0.5893
vt 0.1934 0.5890
vt 0.2106 0.5866
vt 0.0880 0.5861
vt 0.0698 0.5827
vt 0.0881 0.9403
vt 0.1050 0.8559
vt 0.1401 0.9455
vt 0.0776 0.8235
vt 0.1131 0.8507
vt 0.1774 0.8905
vt 0.1514 0.9544
vt 0.0761 0.9544
vt 0.0684 0.7998
vt 0.2316 0.8606
vt 0.2485 0.7762
vt 0.2836 0.8658
vt 0.2211 0.7438
vt 0.2566 0.7711
vt 0.3209 0.8108
vt 0.2949 0.8747
vt 0.2196 0.8747
vt 0.2119 0.7202
vt 0.3408 0.8606
vt 0.3577 0.7762
vt 0.3928 0.8658
vt 0.3302 0.7438
vt 0.3658 0.7711
vt 0.4301 0.8108
vt 0.4041 0.8747
vt 0.3287 0.8747
vt 0.3211 0.7202
vt 0.2119 0.6297
vt 0.2893 0.6160
vt 0.2119 0.7005
vt 0.3501 0.5827
vt 0.2935 0.6216
vt 0.2794 0.7088
vt 0.2295 0.6938
vt 0.3273 0.6070
vt 0.2840 0.7200
vn 0.0000 -0.9960 -0.0892
vn 0.5057 -0.5057 -0.6990
vn 0.7043 -0.7043 -0.0892
vn 0.0000 0.9503 -0.3112
vn 0.7043 0.7043 -0.0892
vn 0.0000 0.9960 -0.0892
vn 0.6720 0.6720 -0.3112
vn 0.9960 0.0000 -0.0892
vn 0.6720 -0.6720 -0.3112
vn 0.0000 -0.9503 -0.3112
vn -0.7043 -0.7043 -0.0892
vn -0.6720 -0.6720 -0.3112
vn -0.9960 0.0000 -0.0892
vn -0.9503 0.0000 -0.3112
vn -0.7043 0.7043 -0.0892
vn -0.6720 0.6720 -0.3112
vn -0.7151 0.0000 -0.6990
vn -0.5057 0.5057 -0.6990
vn 0.5057 0.5057 -0.6990
vn 0.0000 -0.7151 -0.6990
vn 0.0000 0.7151 -0.6990
vn 0.7151 0.0000 -0.6990
vn -0.5057 -0.5057 -0.6990
vn 0.9503 0.0000 -0.3112
vn 0.0000 0.9993 0.0382
vn 0.6812 0.6812 -0.2682
vn 0.0000 0.9633 -0.2682
vn 0.7066 0.7066 0.0382
vn 0.9633 0.0000 -0.2682
vn 0.7066 -0.7066 0.0382
vn 0.6812 -0.6812 -0.2682
vn 0.0000 -0.9633 -0.2682
vn -0.7066 -0.7066 0.0382
vn -0.6812 -0.6812 -0.2682
vn -0.9633 0.0000 -0.2682
vn 0.0000 -0.9993 0.0382
vn -0.6999 -0.6999 0.1429
vn -0.9993 0.0000 0.0382
vn -0.6812 0.6812 -0.2682
vn -0.7066 0.7066 0.0382
vn 0.9897 0.0000 0.1429
vn 0.6503 0.6503 0.3926
vn 0.9197 0.0000 0.3926
vn 0.0000 0.9897 0.1429
vn 0.6999 0.6999 0.1429
vn 0.9993 0.0000 0.0382
vn 0.6999 -0.6999 0.1429
vn -0.9897 0.0000 0.1429
vn 0.0000 -0.9897 0.1429
vn -0.6999 0.6999 0.1429
vn -0.6503 0.6503 0.3926
vn 0.0000 0.5393 0.8421
vn 0.0000 0.9197 0.3926
vn -0.9197 0.0000 0.3926
vn -0.6503 -0.6503 0.3926
vn 0.6503 -0.6503 0.3926
vn 0.0000 -0.9197 0.3926
vn -0.5393 0.0000 0.8421
vn 0.3814 -0.3814 0.8421
vn 0.5393 0.0000 0.8421
vn 0.0000 -0.5393 0.8421
vn -0.3814 0.3814 0.8421
vn -0.3814 -0.3814 0.8421
vn 0.3814 0.3814 0.8421
vn -0.6287 0.7156 0.3043
vn -0.6287 -0.7156 -0.3043
vn -0.5474 -0.3275 0.7701
vn -0.5474 0.3275 -0.7701
vn 0.6287 -0.7156 -0.3043
vn 0.6287 0.7156 0.3043
vn 0.5474 -0.3275 0.7701
vn 0.5474 0.3275 -0.7701
vn -0.7156 -0.6287 0.3043
vn 0.7156 -0.6287 -0.3043
vn 0.3275 -0.5474 0.7701
vn -0.3275 -0.5474 -0.7701
vn 0.7156 0.6287 -0.3043
vn -0.7156 0.6287 0.3043
vn 0.3275 0.5474 0.7701
vn -0.3275 0.5474 -0.7701
vn 0.6287 -0.7156 0.3043
vn 0.6287 0.7156 -0.3043
vn 0.5474 0.3275 0.7701
vn 0.5474 -0.3275 -0.7701
vn -0.6287 0.7156 -0.3043
vn -0.6287 -0.7156 0.3043
vn -0.5474 0.3275 0.7701
vn -0.5474 -0.3275 -0.7701
vn 0.7156 0.6287 0.3043
vn -0.7156 0.6287 -0.3043
vn -0.3275 0.5474 0.7701
vn 0.3275 0.5474 -0.7701
vn -0.7156 -0.6287 -0.3043
vn 0.7156 -0.6287 0.3043
vn -0.3275 -0.5474 0.7701
vn 0.3275 -0.5474 -0.7701
usemtl Material
s 1
f 9/1/1 60/2/2 7/3/3
f 56/4/4 3/5/5 1/6/6
f 49/7/7 5/8/8 3/9/5
f 5/8/8 51/10/9 7/3/3
f 7/3/3 52/11/10 9/1/1
f 52/11/10 11/12/11 9/1/1
f 53/13/12 13/14/13 11/12/11
f 54/15/14 15/16/15 13/14/13
f 55/17/16 1/6/6 15/16/15
f 60/2/2 63/18/17 64/19/18
f 15/16/15 63/18/17 13/14/13
f 5/8/8 58/20/19 3/9/5
f 11/12/11 61/21/20 9/1/1
f 15/16/15 57/22/21 64/19/18
f 1/6/6 58/20/19 57/22/21
f 7/3/3 59/23/22 5/8/8
f 13/14/13 62/24/23 11/12/11
f 9/1/1 61/21/20 60/2/2
f 56/4/4 49/25/7 3/5/5
f 49/7/7 50/26/24 5/8/8
f 5/8/8 50/26/24 51/10/9
f 7/3/3 51/10/9 52/11/10
f 52/11/10 53/13/12 11/12/11
f 53/13/12 54/15/14 13/14/13
f 54/15/14 55/17/16 15/16/15
f 55/17/16 56/4/4 1/6/6
f 64/19/18 57/22/21 58/20/19
f 58/20/19 59/23/22 60/2/2
f 60/2/2 61/21/20 62/24/23
f 62/24/23 63/18/17 60/2/2
f 64/19/18 58/20/19 60/2/2
f 15/16/15 64/19/18 63/18/17
f 5/8/8 59/23/22 58/20/19
f 11/12/11 62/24/23 61/21/20
f 15/16/15 1/6/6 57/22/21
f 1/6/6 3/5/5 58/20/19
f 7/3/3 60/2/2 59/23/22
f 13/14/13 63/18/17 62/24/23
usemtl Material.001
f 2/27/25 42/28/26 41/29/27
f 4/30/28 43/31/29 42/28/26
f 43/32/29 8/33/30 44/34/31
f 8/33/30 45/35/32 44/34/31
f 45/35/32 12/36/33 46/37/34
f 12/36/33 47/38/35 46/37/34
f 10/39/36 22/40/37 12/36/33
f 14/41/38 48/42/39 47/38/35
f 16/43/40 41/29/27 48/42/39
f 19/44/41 25/45/42 27/46/43
f 16/43/40 18/47/44 2/27/25
f 2/27/25 17/48/45 4/30/28
f 6/49/46 20/50/47 8/33/30
f 12/36/33 23/51/48 14/41/38
f 8/33/30 21/52/49 10/39/36
f 16/43/40 23/51/48 24/53/50
f 6/54/46 17/48/45 19/44/41
f 32/55/51 34/56/52 26/57/53
f 24/53/50 31/58/54 32/55/51
f 21/52/49 30/59/55 22/40/37
f 19/60/41 28/61/56 20/50/47
f 18/47/44 25/45/42 17/48/45
f 24/53/50 26/57/53 18/47/44
f 22/40/37 31/58/54 23/51/48
f 20/50/47 29/62/57 21/52/49
f 39/63/58 36/64/59 35/65/60
f 30/59/55 39/63/58 31/58/54
f 28/61/56 37/66/61 29/62/57
f 25/45/42 35/65/60 27/46/43
f 31/58/54 40/67/62 32/55/51
f 29/62/57 38/68/63 30/59/55
f 27/69/43 36/64/59 28/61/56
f 26/57/53 33/70/64 25/45/42
f 48/42/39 56/71/4 55/72/16
f 47/38/35 55/72/16 54/73/14
f 46/37/34 54/73/14 53/74/12
f 52/75/10 46/37/34 53/74/12
f 44/34/31 52/75/10 51/76/9
f 43/32/29 51/76/9 50/77/24
f 49/78/7 43/31/29 50/79/24
f 41/29/27 49/78/7 56/71/4
f 66/80/65 67/81/66 65/82/67
f 68/83/68 71/84/69 67/81/66
f 71/84/69 70/85/70 69/86/71
f 70/87/70 65/82/67 69/86/71
f 71/84/69 65/82/67 67/81/66
f 68/83/68 70/87/70 72/88/72
f 74/89/73 75/90/74 73/91/75
f 76/92/76 79/93/77 75/90/74
f 79/93/77 78/94/78 77/95/79
f 78/96/78 73/91/75 77/95/79
f 79/93/77 73/91/75 75/90/74
f 76/92/76 78/96/78 80/97/80
f 82/98/81 83/99/82 81/100/83
f 84/101/84 87/102/85 83/99/82
f 87/102/85 86/103/86 85/104/87
f 85/104/87 82/98/81 81/100/83
f 87/102/85 81/100/83 83/99/82
f 84/101/84 86/105/86 88/106/88
f 90/107/89 91/108/90 89/109/91
f 92/110/92 95/111/93 91/108/90
f 95/111/93 94/112/94 93/113/95
f 94/112/94 89/109/91 93/113/95
f 95/111/93 89/109/91 91/108/90
f 92/110/92 94/112/94 96/114/96
f 2/27/25 4/30/28 42/28/26
f 4/30/28 6/54/46 43/31/29
f 43/32/29 6/49/46 8/33/30
f 8/33/30 10/39/36 45/35/32
f 45/35/32 10/39/36 12/36/33
f 12/36/33 14/41/38 47/38/35
f 10/39/36 21/52/49 22/40/37
f 14/41/38 16/43/40 48/42/39
f 16/43/40 2/27/25 41/29/27
f 19/44/41 17/48/45 25/45/42
f 16/43/40 24/53/50 18/47/44
f 2/27/25 18/47/44 17/48/45
f 6/49/46 19/60/41 20/50/47
f 12/36/33 22/40/37 23/51/48
f 8/33/30 20/50/47 21/52/49
f 16/43/40 14/41/38 23/51/48
f 6/54/46 4/30/28 17/48/45
f 32/55/51 40/67/62 34/56/52
f 24/53/50 23/51/48 31/58/54
f 21/52/49 29/62/57 30/59/55
f 19/60/41 27/69/43 28/61/56
f 18/47/44 26/57/53 25/45/42
f 24/53/50 32/55/51 26/57/53
f 22/40/37 30/59/55 31/58/54
f 20/50/47 28/61/56 29/62/57
f 35/65/60 33/70/64 34/56/52
f 34/56/52 40/67/62 39/63/58
f 39/63/58 38/68/63 37/66/61
f 37/66/61 36/64/59 39/63/58
f 35/65/60 34/56/52 39/63/58
f 30/59/55 38/68/63 39/63/58
f 28/61/56 36/64/59 37/66/61
f 25/45/42 33/70/64 35/65/60
f 31/58/54 39/63/58 40/67/62
f 29/62/57 37/66/61 38/68/63
f 27/69/43 35/65/60 36/64/59
f 26/57/53 34/56/52 33/70/64
f 48/42/39 41/29/27 56/71/4
f 47/38/35 48/42/39 55/72/16
f 46/37/34 47/38/35 54/73/14
f 52/75/10 45/35/32 46/37/34
f 44/34/31 45/35/32 52/75/10
f 43/32/29 44/34/31 51/76/9
f 49/78/7 42/28/26 43/31/29
f 41/29/27 42/28/26 49/78/7
f 66/80/65 68/83/68 67/81/66
f 68/83/68 72/88/72 71/84/69
f 71/84/69 72/88/72 70/85/70
f 70/87/70 66/80/65 65/82/67
f 71/84/69 69/86/71 65/82/67
f 68/83/68 66/80/65 70/87/70
f 74/89/73 76/92/76 75/90/74
f 76/92/76 80/97/80 79/93/77
f 79/93/77 80/97/80 78/94/78
f 78/96/78 74/89/73 73/91/75
f 79/93/77 77/95/79 73/91/75
f 76/92/76 74/89/73 78/96/78
f 82/98/81 84/101/84 83/99/82
f 84/101/84 88/106/88 87/102/85
f 87/102/85 88/106/88 86/103/86
f 85/104/87 86/105/86 82/98/81
f 87/102/85 85/104/87 81/100/83
f 84/101/84 82/98/81 86/105/86
f 90/107/89 92/110/92 91/108/90
f 92/110/92 96/114/96 95/111/93
f 95/111/93 96/114/96 94/112/94
f 94/112/94 90/115/89 89/109/91
f 95/111/93 93/113/95 89/109/91
f 92/110/92 90/115/89 94/112/94
